<?xml version="1.0" encoding="UTF-8" standalone="no"?>
<!-- Created with Inkscape (http://www.inkscape.org/) -->

<svg
   version="1.1"
   id="svg2"
   width="869.33331"
   height="426.66666"
   viewBox="0 0 869.33331 426.66666"
   sodipodi:docname="Educação_criativa_logos_RGB.ai"
   xmlns:inkscape="http://www.inkscape.org/namespaces/inkscape"
   xmlns:sodipodi="http://sodipodi.sourceforge.net/DTD/sodipodi-0.dtd"
   xmlns="http://www.w3.org/2000/svg"
   xmlns:svg="http://www.w3.org/2000/svg">
  <defs
     id="defs6">
    <clipPath
       clipPathUnits="userSpaceOnUse"
       id="clipPath16">
      <path
         d="M 0,320 H 652 V 0 H 0 Z"
         id="path14" />
    </clipPath>
  </defs>
  <sodipodi:namedview
     id="namedview4"
     pagecolor="#ffffff"
     bordercolor="#000000"
     borderopacity="0.25"
     inkscape:showpageshadow="2"
     inkscape:pageopacity="0.0"
     inkscape:pagecheckerboard="0"
     inkscape:deskcolor="#d1d1d1" />
  <g
     id="g8"
     inkscape:groupmode="layer"
     inkscape:label="Educação_criativa_logos_RGB"
     transform="matrix(1.3333333,0,0,-1.3333333,0,426.66667)">
    <g
       id="g10">
      <g
         id="g12"
         clip-path="url(#clipPath16)">
        <g
           id="g18"
           transform="translate(120.9303,34.5361)">
          <path
             d="m 0,0 c -5.007,0.087 -7.636,1.274 -9.444,6.305 -0.172,0.479 0.175,0.989 0.684,0.989 H 0 8.76 c 0.509,0 0.856,-0.51 0.684,-0.989 C 7.636,1.274 5.007,0.087 0,0"
             style="fill:#ffcc00;fill-opacity:1;fill-rule:nonzero;stroke:none"
             id="path20" />
        </g>
        <g
           id="g22"
           transform="translate(106.3217,45.0376)">
          <path
             d="m 0,0 c -1.92,-0.008 -3.486,1.542 -3.494,3.463 -0.009,1.921 1.542,3.485 3.463,3.494 L 29.217,7.193 C 31.138,7.202 32.703,5.651 32.711,3.73 32.72,1.809 31.169,0.245 29.248,0.236 Z"
             style="fill:#ffcc00;fill-opacity:1;fill-rule:nonzero;stroke:none"
             id="path24" />
        </g>
        <g
           id="g26"
           transform="translate(104.5302,54.977)">
          <path
             d="m 0,0 c -1.92,-0.008 -3.485,1.542 -3.494,3.463 -0.009,1.921 1.542,3.485 3.463,3.494 L 32.8,7.193 C 34.721,7.202 36.286,5.651 36.294,3.73 36.303,1.809 34.752,0.245 32.831,0.236 Z"
             style="fill:#ffcc00;fill-opacity:1;fill-rule:nonzero;stroke:none"
             id="path28" />
        </g>
        <g
           id="g30"
           transform="translate(87.2292,167.9758)">
          <path
             d="m 0,0 v -80.665 c 0,-2.368 -1.919,-4.287 -4.286,-4.287 h -48.131 c -2.484,0 -4.447,2.101 -4.277,4.579 0.949,13.828 7.675,55.825 53.648,82.145 C -1.691,2.547 0,1.561 0,0"
             style="fill:#2ebbf1;fill-opacity:1;fill-rule:nonzero;stroke:none"
             id="path32" />
        </g>
        <g
           id="g34"
           transform="translate(152.7981,168.0307)">
          <path
             d="m 0,0 v -80.772 c 0,-2.371 1.922,-4.292 4.292,-4.292 h 48.195 c 2.486,0 4.452,2.103 4.282,4.585 C 55.819,-66.633 49.084,-24.58 3.05,1.774 1.694,2.551 0,1.563 0,0"
             style="fill:#2ebbf1;fill-opacity:1;fill-rule:nonzero;stroke:none"
             id="path36" />
        </g>
        <g
           id="g38"
           transform="translate(119.7282,262.9323)">
          <path
             d="m 0,0 c -2.332,0 -4.224,1.891 -4.224,4.224 v 13.062 c 0,2.333 1.892,4.224 4.224,4.224 2.332,0 4.224,-1.891 4.224,-4.224 V 4.224 C 4.224,1.891 2.332,0 0,0"
             style="fill:#2ebbf1;fill-opacity:1;fill-rule:nonzero;stroke:none"
             id="path40" />
        </g>
        <g
           id="g42"
           transform="translate(155.5151,248.1085)">
          <path
             d="m 0,0 c -1.081,0 -2.162,0.412 -2.987,1.237 -1.649,1.649 -1.649,4.324 0,5.973 l 9.237,9.237 c 1.65,1.65 4.324,1.65 5.974,0 1.649,-1.649 1.649,-4.324 0,-5.973 L 2.987,1.237 C 2.162,0.412 1.081,0 0,0"
             style="fill:#2ebbf1;fill-opacity:1;fill-rule:nonzero;stroke:none"
             id="path44" />
        </g>
        <g
           id="g46"
           transform="translate(83.9413,248.1085)">
          <path
             d="m 0,0 c -1.081,0 -2.162,0.412 -2.987,1.237 l -9.237,9.237 c -1.649,1.649 -1.649,4.324 0,5.973 1.65,1.65 4.324,1.65 5.974,0 L 2.987,7.21 C 4.636,5.561 4.636,2.886 2.987,1.237 2.162,0.412 1.081,0 0,0"
             style="fill:#2ebbf1;fill-opacity:1;fill-rule:nonzero;stroke:none"
             id="path48" />
        </g>
        <g
           id="g50"
           transform="translate(234.3031,185.3752)">
          <path
             d="M 0,0 29.327,0.795 C 29.415,8.922 24.292,13.957 15.193,13.957 8.039,13.957 0.619,10.247 0,0 m 35.599,-15.9 c 0,-5.388 -9.717,-11.395 -20.052,-11.395 -14.045,0 -22.878,8.48 -22.878,24.645 0,15.37 9.098,24.292 22.524,24.292 13.162,0 21.377,-7.774 21.377,-21.2 0,-4.505 -2.384,-6.184 -6.094,-6.184 H 0.089 c 0.706,-9.451 7.861,-13.514 15.458,-13.514 6.625,0 9.893,2.384 12.19,4.239 1.767,1.414 2.826,2.562 4.682,2.562 1.678,0 3.18,-1.236 3.18,-3.445"
             style="fill:#0e2f8d;fill-opacity:1;fill-rule:nonzero;stroke:none"
             id="path52" />
        </g>
        <g
           id="g54"
           transform="translate(315.3001,182.6369)">
          <path
             d="m 0,0 c 0,7.508 -3.887,15.9 -15.37,15.9 -9.629,0 -14.045,-6.978 -14.045,-16.341 0,-9.717 4.682,-15.901 14.398,-15.901 C -3.181,-16.342 0,-7.773 0,0 m -36.658,-0.354 c 0,17.402 9.363,24.734 19.875,24.734 7.42,0 13.691,-4.417 15.899,-13.162 h 0.53 V 23.32 34.892 c 0,2.031 1.59,3.621 3.622,3.621 2.032,0 3.622,-1.59 3.622,-3.621 v -46.199 l 1.059,-9.275 c 0.177,-2.031 -1.59,-3.71 -3.533,-3.71 -1.854,0 -3.356,1.414 -3.533,3.269 l -0.795,9.716 h -0.442 c -2.032,-9.009 -9.009,-13.25 -17.136,-13.25 -9.982,0.089 -19.168,6.096 -19.168,24.203"
             style="fill:#0e2f8d;fill-opacity:1;fill-rule:nonzero;stroke:none"
             id="path56" />
        </g>
        <g
           id="g58"
           transform="translate(334.9935,174.5988)">
          <path
             d="m 0,0 v 28.708 c 0,2.032 1.678,3.71 3.71,3.71 2.031,0 3.71,-1.678 3.71,-3.71 V 1.501 c 0,-6.183 3.975,-9.805 10.688,-9.805 7.95,0 13.869,5.654 13.869,9.894 v 27.118 c 0,2.032 1.677,3.71 3.71,3.71 2.031,0 3.709,-1.678 3.709,-3.71 V -3.534 l 0.795,-9.186 c 0.265,-2.032 -1.413,-3.622 -3.533,-3.622 -1.855,0 -3.356,1.413 -3.445,3.268 l -0.618,8.392 H 32.064 C 29.944,-13.074 22.701,-16.519 15.723,-16.519 6.625,-16.519 0,-11.13 0,0"
             style="fill:#0e2f8d;fill-opacity:1;fill-rule:nonzero;stroke:none"
             id="path60" />
        </g>
        <g
           id="g62"
           transform="translate(384.8978,182.9904)">
          <path
             d="m 0,0 c 0,14.575 8.038,24.026 22.525,24.026 10.6,0 18.461,-6.271 18.461,-11.571 0,-1.943 -1.677,-3.534 -3.444,-3.534 -2.12,0 -2.827,1.591 -4.771,3.446 -1.943,1.855 -5.123,3.621 -10.599,3.621 -8.657,0 -14.929,-4.505 -14.929,-16.342 0,-11.748 7.067,-16.518 15.988,-16.518 5.212,0 8.127,1.767 10.159,3.622 1.855,1.767 3.004,3.356 4.858,3.356 2.032,0 3.269,-1.678 3.269,-3.621 0,-4.593 -7.244,-11.395 -18.727,-11.395 C 8.922,-24.91 0,-16.43 0,0"
             style="fill:#0e2f8d;fill-opacity:1;fill-rule:nonzero;stroke:none"
             id="path64" />
        </g>
        <g
           id="g66"
           transform="translate(466.9554,173.6271)">
          <path
             d="m 0,0 c 0,4.328 -6.007,6.89 -13.162,6.89 -6.979,0 -12.366,-1.855 -12.366,-7.244 0,-5.741 5.387,-7.419 12.189,-7.419 C -6.36,-7.773 0,-4.682 0,0 m -32.772,-0.442 c 0,8.127 5.565,13.957 17.754,13.957 6.096,0 11.661,-2.562 14.134,-6.272 h 0.53 v 7.862 c 0,7.066 -5.476,10.247 -12.72,10.247 -7.067,0 -9.275,-2.297 -10.423,-4.594 -0.972,-1.943 -1.325,-3.975 -3.887,-3.975 -2.208,0 -3.533,1.325 -3.533,3.799 0,7.066 7.508,12.808 18.373,12.808 11.837,0 19.522,-4.947 19.522,-17.844 V -4.858 l 0.794,-6.36 c 0.266,-2.12 -1.413,-4.064 -3.621,-4.064 -1.766,0 -3.356,1.413 -3.622,3.268 l -0.618,5.742 H -0.53 c -2.562,-5.742 -8.215,-8.921 -15.901,-8.921 -9.54,0 -16.341,4.77 -16.341,14.751"
             style="fill:#0e2f8d;fill-opacity:1;fill-rule:nonzero;stroke:none"
             id="path68" />
        </g>
        <g
           id="g70"
           transform="translate(507.1429,158.0802)">
          <path
             d="m 0,0 -1.413,-4.505 c 4.239,1.59 9.717,-0.177 9.717,-5.123 0,-4.416 -3.446,-7.42 -9.365,-7.42 -3.797,0 -6.889,1.06 -8.833,3.091 -2.649,2.651 1.061,6.007 2.828,3.887 3.179,-3.974 10.511,-3.18 10.511,0.089 0,2.296 -2.65,3.533 -6.183,1.59 -1.856,-0.972 -4.152,1.059 -3.533,2.826 l 1.766,5.742 c -11.837,1.325 -19.257,9.717 -19.257,24.733 0,14.575 8.038,24.027 22.526,24.027 10.599,0 18.461,-6.272 18.461,-11.572 0,-1.943 -1.678,-3.533 -3.445,-3.533 -2.12,0 -2.827,1.59 -4.77,3.445 -1.944,1.855 -5.123,3.621 -10.6,3.621 -8.657,0 -14.929,-4.504 -14.929,-16.341 0,-11.748 7.067,-16.518 15.989,-16.518 5.212,0 8.127,1.766 10.158,3.621 1.855,1.767 3.004,3.357 4.858,3.357 2.033,0 3.269,-1.679 3.269,-3.622 C 17.755,6.89 10.953,0.354 0,0"
             style="fill:#0e2f8d;fill-opacity:1;fill-rule:nonzero;stroke:none"
             id="path72" />
        </g>
        <g
           id="g74"
           transform="translate(565.4398,173.6271)">
          <path
             d="m 0,0 c 0,4.328 -6.007,6.89 -13.162,6.89 -6.979,0 -12.366,-1.855 -12.366,-7.244 0,-5.741 5.387,-7.419 12.189,-7.419 C -6.36,-7.773 0,-4.682 0,0 m -18.551,42.753 c -1.678,0 -2.915,-0.795 -3.621,-1.855 -0.441,-0.795 -1.06,-1.413 -2.209,-1.413 -1.766,0 -3.003,1.678 -2.385,3.621 0.972,3.269 3.887,5.654 8.304,5.654 5.123,0 9.274,-3.799 12.808,-3.799 1.678,0 2.915,0.795 3.622,1.855 0.441,0.795 1.06,1.413 2.208,1.413 1.766,0 3.004,-1.678 2.386,-3.533 -0.972,-3.356 -3.887,-5.741 -8.304,-5.741 -5.389,0 -9.099,3.798 -12.809,3.798 M -32.772,-0.442 c 0,8.127 5.565,13.957 17.754,13.957 6.096,0 11.661,-2.562 14.134,-6.272 h 0.53 v 7.862 c 0,7.066 -5.476,10.247 -12.72,10.247 -7.067,0 -9.275,-2.297 -10.423,-4.594 -0.972,-1.943 -1.325,-3.975 -3.887,-3.975 -2.208,0 -3.533,1.325 -3.533,3.799 0,7.066 7.508,12.808 18.373,12.808 11.837,0 19.522,-4.947 19.522,-17.844 V -4.858 l 0.794,-6.36 c 0.266,-2.12 -1.413,-4.064 -3.621,-4.064 -1.766,0 -3.356,1.413 -3.622,3.268 l -0.618,5.742 H -0.53 c -2.562,-5.742 -8.215,-8.921 -15.901,-8.921 -9.54,0 -16.341,4.77 -16.341,14.751"
             style="fill:#0e2f8d;fill-opacity:1;fill-rule:nonzero;stroke:none"
             id="path76" />
        </g>
        <g
           id="g78"
           transform="translate(619.7601,182.7253)">
          <path
             d="m 0,0 c 0,11.307 -6.006,16.342 -15.369,16.342 -9.363,0 -15.37,-5.035 -15.37,-16.342 0,-11.395 6.007,-16.43 15.37,-16.43 C -6.006,-16.43 0,-11.395 0,0 m -37.895,-0.088 c 0,14.398 7.597,24.468 22.526,24.468 14.928,0 22.524,-10.07 22.524,-24.38 0,-14.398 -7.596,-24.557 -22.524,-24.557 -14.929,0 -22.526,10.159 -22.526,24.469"
             style="fill:#0e2f8d;fill-opacity:1;fill-rule:nonzero;stroke:none"
             id="path80" />
        </g>
        <g
           id="g82"
           transform="translate(225.9115,107.9645)">
          <path
             d="m 0,0 c 0,14.752 8.834,23.938 23.674,23.938 9.01,0 19.345,-4.328 19.345,-11.924 0,-3.534 -2.739,-6.979 -6.272,-6.979 -1.943,0 -3.356,0.795 -4.858,1.679 -2.033,1.236 -4.241,2.385 -7.774,2.385 -4.505,0 -9.54,-2.032 -9.54,-9.453 0,-7.331 5.3,-9.892 10.424,-9.892 3.091,0 5.3,1.236 7.154,2.296 1.856,1.06 3.357,1.767 5.3,1.767 3.887,0 6.096,-3.622 6.096,-6.978 0,-6.625 -8.922,-11.925 -19.257,-11.925 C 9.011,-25.086 0,-16.518 0,0"
             style="fill:#2ebbf1;fill-opacity:1;fill-rule:nonzero;stroke:none"
             id="path84" />
        </g>
        <g
           id="g86"
           transform="translate(276.5238,90.2985)">
          <path
             d="m 0,0 v 23.937 l -0.972,9.982 c -0.53,4.063 2.385,7.685 7.243,7.685 3.71,0 6.802,-2.384 7.067,-6.801 l 0.441,-8.392 h 1.061 c 0.618,11.395 6.271,15.105 10.864,15.105 4.417,0 6.979,-3.534 6.979,-8.215 0,-5.565 -3.357,-10.511 -9.364,-10.07 -4.769,0.265 -8.391,-2.296 -8.391,-7.508 L 14.928,0 c 0,-4.417 -3.533,-7.42 -7.597,-7.42 C 3.444,-7.42 0,-4.594 0,0"
             style="fill:#2ebbf1;fill-opacity:1;fill-rule:nonzero;stroke:none"
             id="path88" />
        </g>
        <g
           id="g90"
           transform="translate(317.7708,141.8844)">
          <path
             d="m 0,0 c 0,4.417 2.563,7.597 8.657,7.597 6.007,0 8.745,-3.18 8.745,-7.509 0,-4.239 -2.738,-7.597 -8.745,-7.597 C 2.65,-7.509 0,-4.24 0,0 m 10.865,-10.953 c 3.092,0 5.919,-2.209 5.919,-6.007 v -34.626 c 0,-4.594 -3.71,-7.42 -7.509,-7.42 -3.886,0 -7.42,2.915 -7.42,7.42 v 24.909 c -4.681,0.531 -7.066,4.153 -7.066,7.95 0,4.152 3.092,7.774 7.861,7.774 z"
             style="fill:#2ebbf1;fill-opacity:1;fill-rule:nonzero;stroke:none"
             id="path92" />
        </g>
        <g
           id="g94"
           transform="translate(372.182,98.9548)">
          <path
             d="m 0,0 c 0,2.474 -3.533,3.622 -7.862,3.622 -4.505,0 -7.773,-1.06 -7.773,-3.887 0,-2.738 3.268,-3.622 7.773,-3.622 C -3.887,-3.887 0,-2.738 0,0 m -30.21,-1.413 c 0,8.126 6.184,12.984 16.43,12.984 8.215,0 11.571,-3.091 13.073,-6.713 h 0.266 v 6.537 c 0,4.417 -3.181,6.801 -8.216,6.801 -3.975,0 -5.741,-1.059 -7.331,-2.649 -1.502,-1.413 -2.827,-3.181 -6.184,-3.181 -4.328,0 -6.713,3.181 -6.713,7.068 0,9.363 11.307,13.514 21.376,13.514 12.72,0 21.731,-5.212 21.731,-19.344 V -0.441 l 0.971,-7.067 c 0.795,-5.388 -3.004,-8.48 -6.89,-8.568 -4.152,-0.089 -6.89,2.472 -7.42,6.182 L 0.177,-4.77 h -0.618 c -1.414,-7.155 -6.979,-11.218 -15.813,-11.218 -8.392,0.176 -13.956,5.123 -13.956,14.575"
             style="fill:#2ebbf1;fill-opacity:1;fill-rule:nonzero;stroke:none"
             id="path96" />
        </g>
        <g
           id="g98"
           transform="translate(397.8831,99.8385)">
          <path
             d="M 0,0 V 16.518 L -1.855,16.43 c -3.975,-0.177 -6.625,3.268 -6.625,7.066 0,3.975 2.827,7.331 6.713,7.155 l 2.208,-0.089 v 4.859 c 0,4.151 3.269,6.978 7.42,6.978 4.505,0 7.332,-3.268 7.156,-7.42 l -0.177,-4.593 6.36,0.441 c 4.063,0.177 6.801,-3.091 6.801,-7.066 0,-4.063 -2.826,-7.597 -6.89,-7.331 l -6.183,0.264 V 3.621 c 0,-3.71 1.766,-5.123 3.71,-5.123 1.591,0 3.004,0.53 4.063,1.236 1.061,0.531 1.856,0.795 2.651,0.795 2.384,0 4.24,-2.208 4.24,-6.007 0,-7.596 -7.068,-11.482 -15.017,-11.482 C 6.713,-16.96 0,-12.544 0,0"
             style="fill:#2ebbf1;fill-opacity:1;fill-rule:nonzero;stroke:none"
             id="path100" />
        </g>
        <g
           id="g102"
           transform="translate(434.5374,141.8844)">
          <path
             d="m 0,0 c 0,4.417 2.562,7.597 8.657,7.597 6.006,0 8.745,-3.18 8.745,-7.509 0,-4.239 -2.739,-7.597 -8.745,-7.597 C 2.65,-7.509 0,-4.24 0,0 m 10.865,-10.953 c 3.092,0 5.918,-2.209 5.918,-6.007 v -34.626 c 0,-4.594 -3.71,-7.42 -7.508,-7.42 -3.886,0 -7.42,2.915 -7.42,7.42 v 24.909 c -4.681,0.531 -7.066,4.153 -7.066,7.95 0,4.152 3.091,7.774 7.861,7.774 z"
             style="fill:#2ebbf1;fill-opacity:1;fill-rule:nonzero;stroke:none"
             id="path104" />
        </g>
        <g
           id="g106"
           transform="translate(468.6312,91.0046)">
          <path
             d="m 0,0 -10.864,30.033 c -1.856,5.035 0.529,10.865 6.977,10.865 4.329,0 6.537,-2.65 7.42,-5.742 l 7.95,-26.852 7.951,26.852 c 0.883,3.092 3.003,5.742 7.332,5.742 6.448,0 8.833,-5.83 7.066,-10.865 L 22.967,0 C 20.759,-5.918 17.049,-8.126 11.483,-8.126 5.83,-8.126 2.209,-5.918 0,0"
             style="fill:#2ebbf1;fill-opacity:1;fill-rule:nonzero;stroke:none"
             id="path108" />
        </g>
        <g
           id="g110"
           transform="translate(536.2044,98.9548)">
          <path
             d="m 0,0 c 0,2.474 -3.534,3.622 -7.862,3.622 -4.505,0 -7.774,-1.06 -7.774,-3.887 0,-2.738 3.269,-3.622 7.774,-3.622 C -3.887,-3.887 0,-2.738 0,0 m -30.21,-1.413 c 0,8.126 6.183,12.984 16.43,12.984 8.215,0 11.571,-3.091 13.073,-6.713 h 0.265 v 6.537 c 0,4.417 -3.18,6.801 -8.215,6.801 -3.975,0 -5.741,-1.059 -7.331,-2.649 -1.502,-1.413 -2.827,-3.181 -6.184,-3.181 -4.328,0 -6.714,3.181 -6.714,7.068 0,9.363 11.307,13.514 21.377,13.514 12.72,0 21.731,-5.212 21.731,-19.344 V -0.441 l 0.97,-7.067 c 0.796,-5.388 -3.003,-8.48 -6.889,-8.568 -4.152,-0.089 -6.89,2.472 -7.42,6.182 L 0.176,-4.77 h -0.618 c -1.413,-7.155 -6.979,-11.218 -15.812,-11.218 -8.391,0.176 -13.956,5.123 -13.956,14.575"
             style="fill:#2ebbf1;fill-opacity:1;fill-rule:nonzero;stroke:none"
             id="path112" />
        </g>
        <g
           id="g114"
           transform="translate(119.7282,175.7962)">
          <path
             d="m 0,0 c -9.505,0 -17.211,7.706 -17.211,17.211 0,9.505 7.706,17.211 17.211,17.211 9.505,0 17.211,-7.706 17.211,-17.211 C 17.211,7.706 9.505,0 0,0 m 47.247,8.344 c 0.861,40.025 -30.442,61.115 -42.483,67.732 -2.885,1.586 -6.372,1.586 -9.258,0 -11.874,-6.525 -42.484,-27.126 -42.502,-66.083 0,-0.038 -0.002,-0.077 -0.002,-0.116 v -115.104 c 0,-2.955 2.395,-5.351 5.35,-5.351 h 83.587 c 2.955,0 5.351,2.396 5.351,5.351 V 6.42 c 0,0.645 -0.017,1.286 -0.043,1.924"
             style="fill:#0856f1;fill-opacity:1;fill-rule:nonzero;stroke:none"
             id="path116" />
        </g>
        <g
           id="g118"
           transform="translate(119.7282,207.0832)">
          <path
             d="m 0,0 c -7.762,0 -14.076,-6.314 -14.076,-14.076 0,-7.761 6.314,-14.076 14.076,-14.076 7.761,0 14.076,6.315 14.076,14.076 C 14.076,-6.314 7.761,0 0,0 m 0,-34.422 c -11.219,0 -20.346,9.127 -20.346,20.346 0,11.219 9.127,20.346 20.346,20.346 11.219,0 20.346,-9.127 20.346,-20.346 0,-11.219 -9.127,-20.346 -20.346,-20.346"
             style="fill:#0e2f8d;fill-opacity:1;fill-rule:nonzero;stroke:none"
             id="path120" />
        </g>
        <g
           id="g122"
           transform="translate(83.3636,184.5669)">
          <path
             d="m 0,0 c -1.764,1.455 -4.249,-0.581 -3.154,-2.588 7.455,-13.666 13.852,-21.397 20.058,-26.165 1.01,-0.775 1.407,-2.081 1.044,-3.302 -3.202,-10.751 -1.834,-29.878 4.412,-44.059 4.414,-10.101 13.656,-24.635 31.897,-35.666 2.825,-1.708 5.979,1.657 4.085,4.361 -9.937,14.183 -16.279,24.429 -17.971,29.093 -0.291,0.8 0.746,1.398 1.308,0.76 11.309,-12.836 21.675,-21.705 29.622,-27.445 2.779,-2.007 6.234,1.401 4.279,4.218 -6.19,8.917 -10.335,15.389 -17.081,27.71 -3.553,6.502 -7.356,16.525 -9.029,28.277 -0.244,1.715 1.494,3.037 3.09,2.364 3.767,-1.591 7.815,-3.649 12.228,-6.465 2.341,-1.493 5.021,1.39 3.332,3.594 C 46.437,-17.016 22.293,-18.39 0,0"
             style="fill:#0e2f8d;fill-opacity:1;fill-rule:evenodd;stroke:none"
             id="path124" />
        </g>
        <g
           id="g126"
           transform="translate(71.978,178.7095)">
          <path
             d="m 0,0 c -1.709,10.423 -4.261,12.975 -14.684,14.684 -0.85,0.139 -0.85,1.364 0,1.503 10.423,1.709 12.975,4.261 14.684,14.684 0.139,0.85 1.364,0.85 1.504,0 1.709,-10.423 4.261,-12.975 14.683,-14.684 0.851,-0.139 0.851,-1.364 0,-1.503 C 5.765,12.975 3.213,10.423 1.504,0 1.364,-0.85 0.139,-0.85 0,0"
             style="fill:#f9c021;fill-opacity:1;fill-rule:nonzero;stroke:none"
             id="path128" />
        </g>
      </g>
    </g>
  </g>
</svg>
